<svg width="172" height="148" viewBox="0 0 172 148" fill="none" xmlns="http://www.w3.org/2000/svg">
<path d="M6.3 43.8C6.1 40.8 8.4 38.3 11.4 38.1L58.3 37.4C61.3 37.3 64.1 35.6 65.6 33.0L69.8 25.6C71.3 23.0 74.1 21.3 77.1 21.2L95.4 20.9C98.4 20.8 101.3 22.5 102.8 25.1L107.1 32.6C108.6 35.2 111.5 36.9 114.5 37.0L160.8 37.9C163.9 38.0 166.3 40.5 166.4 43.6L167.1 133.4C167.2 136.5 164.8 139.1 161.7 139.2L10.3 140.6C7.2 140.7 4.7 138.3 4.6 135.2L3.9 44.9C3.9 44.5 4.0 44.1 4.2 43.8L6.3 43.8Z" fill="black"/>
</svg>
